<?xml version="1.0" encoding="UTF-8" standalone="no"?>
<svg
   width="1024"
   height="1024"
   viewBox="0 0 1024 1024"
   version="1.1"
   id="svg10"
   sodipodi:docname="Logo_Final.svg"
   inkscape:export-filename="..\cafe-app\src\assets\Images\Logo_Final.svg"
   inkscape:export-xdpi="96"
   inkscape:export-ydpi="96"
   xmlns:inkscape="http://www.inkscape.org/namespaces/inkscape"
   xmlns:sodipodi="http://sodipodi.sourceforge.net/DTD/sodipodi-0.dtd"
   xmlns="http://www.w3.org/2000/svg"
   xmlns:svg="http://www.w3.org/2000/svg">
  <sodipodi:namedview
     id="namedview12"
     pagecolor="#505050"
     bordercolor="#eeeeee"
     borderopacity="1"
     inkscape:showpageshadow="0"
     inkscape:pageopacity="0"
     inkscape:pagecheckerboard="0"
     inkscape:deskcolor="#505050"
     showgrid="false"
     inkscape:lockguides="true" />
  <defs
     id="defs4">
    <style
       id="style2">
      .cls-1 {
        fill: #524046;
        fill-rule: evenodd;
      }
    </style>
  </defs>
  <circle
     style="fill:#e9b47e;fill-opacity:1;stroke:none;stroke-width:100;stroke-linecap:butt;stroke-linejoin:miter;stroke-dasharray:200, 200;stroke-dashoffset:0;stroke-opacity:1;paint-order:markers fill stroke"
     id="path227"
     cx="512"
     cy="512"
     r="461.34079" />
  <path
     class="cls-1"
     d="m 513.19588,775.23245 c 78.1752,0 145.84379,-20.99718 179.97295,-31.75779 48.86398,13.3422 79.12551,31.82859 79.12551,52.25937 0,40.67619 -119.92504,73.65287 -267.85701,73.65287 -147.93198,0 -267.86578,-32.97668 -267.86578,-73.65287 0,-21.76646 34.34959,-41.32504 88.94604,-54.80811 31.00382,12.13571 103.47282,34.30653 187.67829,34.30653 z"
     id="path6"
     style="stroke-width:0.729879" />
  <path
     class="cls-1"
     d="m 499.74201,753.56889 c 0,0 -40.72728,-77.70443 79.98749,-221.36077 120.71477,-143.65634 -64.73374,-313.9978 -57.66559,-379.47602 -12.68676,65.02277 -140.4164,199.0323 -89.28834,290.18622 51.12806,91.15392 117.77043,89.79926 63.24551,185.08722 -22.29416,38.96388 -24.82247,86.0922 -16.74124,110.68184 4.33183,9.04467 8.4958,12.17877 20.46217,14.88151 z M 488.82739,292.24564 c 0,0 -60.57562,69.29695 9.05051,150.67414 14.56693,17.02443 50.90106,82.85227 30.69289,126.48811 33.03946,-85.22657 64.10021,-119.62725 30.69289,-197.1784 -35.65315,-82.7625 -40.42218,-96.801 -43.46724,-144.16361 -17.89227,147.83782 20.21328,218.85364 38.13766,247.40506 -30.98192,-15.28076 -80.43491,-74.23312 -65.10671,-183.2253 z m 225.4751,103.6969 c 0,0 1.55538,32.64313 -2.50275,61.97042 -6.07844,43.93364 -29.0441,55.83578 -47.15022,63.30026 -8.55054,3.52532 -33.25258,12.55393 -40.98419,20.9563 11.13869,-40.6229 -0.56128,-62.45068 22.0825,-94.76245 25.39397,-36.23851 46.42399,-35.93123 68.55466,-51.46453 z m -67.51385,114.88887 c 0,0 56.9379,-25.80635 52.09369,-88.37819 -26.7968,31.64612 -49.53838,43.81394 -52.09515,88.37819 z M 504.95919,742.40758 c 0,0 -7.5236,-82.17932 50.79742,-136.50717 58.32102,-54.32785 161.10192,-72.26756 218.90984,-127.47054 -23.50212,60.45665 -39.64779,168.54377 -114.3619,225.59261 -42.82276,32.6935 -48.54866,11.24745 -155.34536,38.3851 z m 42.34104,-45.27224 C 565.09031,609.51623 709.5247,573.05583 713.39744,553.26296 666.72165,722.58551 577.59826,670.04586 547.30023,697.13534 Z m -79.22988,36.97643 c 0,0 6.20398,-67.73282 -41.86954,-112.51823 -48.07351,-44.7854 -132.78697,-59.56619 -180.43278,-105.06688 19.3732,49.83033 32.68036,138.92088 94.26248,185.94337 35.29113,26.9508 40.01272,9.27385 128.03984,31.64174 z m -28.35363,-39.2989 C 425.83587,626.46257 313.16365,598.02209 310.14341,582.5793 346.5549,714.66924 416.08103,673.68285 439.71672,694.81287 Z m 24.59329,-59.99026 c 0,0 22.84523,-38.72522 0.12919,-81.68446 -18.93453,-35.81227 -45.07663,-13.16849 -55.62704,-40.58495 -10.05701,-26.13407 12.8218,-48.98659 -23.98822,-70.21441 -35.51593,-20.48261 -45.28318,-3.85449 -72.469,-16.1099 18.51996,25.82679 16.01283,54.79059 37.95373,71.46396 22.73356,17.27771 40.23461,1.30795 52.92721,17.70761 13.06485,16.87992 -11.04234,45.88241 13.53416,69.30862 23.9561,22.83647 36.78812,23.87655 47.53997,50.11353 z m -5.60547,-37.59974 c 0,0 8.00239,-24.92101 -8.62937,-40.23388 -14.73554,-13.56627 -24.39768,-11.35108 -32.87815,-20.79208 -0.24378,24.38309 5.64197,35.15903 11.99484,41.08346 6.41345,5.98136 23.15324,7.6995 29.51268,19.9425 z m -63.96226,-99.97451 c 0,0 2.60421,-50.26972 -59.52605,-54.83512 15.55665,9.93804 11.92988,26.01071 22.85909,34.97145 11.10147,9.10232 29.6988,10.54967 36.66696,19.86367 z"
     id="path8"
     style="stroke-width:0.729879" />
</svg>
